Coordinates
version=1
nRows=26
nColumns=24
inDegrees=yes

Units are S.I. units (second, meters, Newtons, ...)
Angles are in degrees.

endheader
time	pelvis_tilt	pelvis_list	pelvis_rotation	pelvis_tx	pelvis_ty	pelvis_tz	hip_flexion_r	hip_adduction_r	hip_rotation_r	knee_angle_r	ankle_angle_r	subtalar_angle_r	mtp_angle_r	hip_flexion_l	hip_adduction_l	hip_rotation_l	knee_angle_l	ankle_angle_l	subtalar_angle_l	mtp_angle_l	lumbar_extension	lumbar_bending	lumbar_rotation
     26.66500000	      0.12262904	     -3.76877279	   -261.84111143	      0.00174590	      0.08154781	     -1.84681544	     32.61632796	     -4.87648012	    -19.94158716	    -17.71144126	     -8.20102199	     -8.96825224	      2.74976878	    -15.06797632	     -2.89196663	     -3.88966891	    -15.92198694	     11.30830171	      7.18313519	     10.66797528	     -8.90769078	      0.21991668	    -11.72936000
     26.67000000	      0.37846344	     -3.76126566	   -261.92460776	      0.00277121	      0.08139778	     -1.84842101	     32.48633552	     -4.54617920	    -19.87821128	    -18.10493672	     -8.68884159	     -9.85376167	      1.85803395	    -15.12031075	     -3.35828013	     -4.26951243	    -16.53759551	     10.51053019	      7.61798095	     11.91068232	     -8.64815068	      0.45284127	    -11.60945481
     26.67500000	      0.55222983	     -3.86089721	   -261.93719998	      0.00372782	      0.08122176	     -1.84958096	     32.57427288	     -4.37218033	    -19.71577120	    -18.73509999	     -8.93747276	    -10.76996402	      0.89962319	    -14.92668186	     -3.72879929	     -4.45813063	    -17.32283066	      9.65580872	      7.95476396	     13.20561108	     -8.37953007	      0.59853906	    -11.58845532
     26.68000000	      0.72208768	     -3.94301052	   -262.02969117	      0.00476726	      0.08110866	     -1.85090240	     32.65073781	     -4.13243439	    -19.42314990	    -19.43093535	     -8.90049752	    -11.61283266	      0.18532905	    -14.76934634	     -4.08348438	     -4.73600656	    -18.08715056	      8.67885131	      8.32295205	     14.53338642	     -8.10273958	      0.73227180	    -11.50004902
     26.68500000	      0.88450664	     -4.02577420	   -262.13456900	      0.00591021	      0.08103905	     -1.85222805	     32.78333618	     -3.88231884	    -19.02651267	    -20.26444377	     -8.76068793	    -12.39807190	     -0.55279886	    -14.58899058	     -4.43922998	     -4.99064555	    -18.86249516	      7.56878370	      8.67245316	     16.08438293	     -7.83888909	      0.84871016	    -11.40548471
     26.69000000	      0.99907184	     -4.14378025	   -262.29792073	      0.00701664	      0.08096952	     -1.85350621	     33.01553993	     -3.66992635	    -18.57826725	    -21.22820088	     -8.65237892	    -12.91814175	     -0.57006065	    -14.34817253	     -4.72054232	     -5.28945261	    -19.66913128	      6.64768007	      8.94912262	     16.17830382	     -7.57645924	      0.92069086	    -11.32295518
     26.69500000	      1.16563786	     -4.23897561	   -262.46722630	      0.00816969	      0.08098098	     -1.85476929	     33.27163438	     -3.40432905	    -18.17277273	    -22.29646570	     -8.39743996	    -13.37968086	     -1.49192315	    -14.08694870	     -5.09747298	     -5.71718479	    -20.54103642	      5.03076299	      9.58484471	     19.82161856	     -7.28382700	      1.04500874	    -11.12989285
     26.70000000	      1.27528057	     -4.32350057	   -262.68722311	      0.00930861	      0.08109194	     -1.85598728	     33.51417366	     -3.17703779	    -17.71287641	    -23.33886914	     -8.31164162	    -13.51818625	     -1.92582759	    -13.80927690	     -5.38268752	     -6.06955540	    -21.43125651	      3.57871010	      9.91959976	     21.63857346	     -7.03662800	      1.10583083	    -10.90030645
     26.70500000	      1.34628389	     -4.37982150	   -262.88951716	      0.01040516	      0.08126608	     -1.85715265	     33.69368147	     -2.98935670	    -17.32701600	    -24.31736293	     -8.26365766	    -13.59536190	     -1.94768406	    -13.51896050	     -5.60794183	     -6.26558029	    -22.36196187	      2.34356533	      9.98448515	     21.63020806	     -6.83198398	      1.14529352	    -10.75107413
     26.71000000	      1.47326069	     -4.41853964	   -263.11057567	      0.01157528	      0.08152565	     -1.85835565	     33.80836499	     -2.70310088	    -16.96507898	    -25.19846745	     -8.11726614	    -13.94481687	     -2.57976220	    -13.20360995	     -5.95251012	     -6.70785049	    -23.31608007	      0.28435222	     10.45285968	     25.45559047	     -6.65480087	      1.24846092	    -10.58298844
     26.71500000	      1.55676515	     -4.41912198	   -263.34541407	      0.01276013	      0.08190055	     -1.85950801	     33.86086368	     -2.49766109	    -16.84261029	    -26.08753508	     -7.96363827	    -13.98930760	     -2.52243916	    -12.84902382	     -6.24062758	     -7.09161896	    -24.39797579	     -1.49757972	     10.65528755	     27.34288345	     -6.47053091	      1.27286798	    -10.26855242
     26.72000000	      1.63238704	     -4.38091612	   -263.62071919	      0.01403036	      0.08233375	     -1.86069532	     33.79836332	     -2.22865026	    -16.62828726	    -26.84493500	     -7.66835071	    -14.12353108	     -2.55507865	    -12.56017553	     -6.53194565	     -7.48550876	    -25.41056300	     -3.37600024	     10.77237585	     28.89794327	     -6.35046558	      1.28606380	     -9.91077346
     26.72500000	      1.69567438	     -4.29948423	   -263.82040097	      0.01518948	      0.08288451	     -1.86183018	     33.61924968	     -2.03389255	    -16.63811465	    -27.53165164	     -7.11785136	    -14.11315934	     -2.42902891	    -12.21609146	     -6.80742205	     -7.64885211	    -26.52918206	     -5.30985770	     10.81032359	     30.57091627	     -6.27865966	      1.34350392	     -9.84690689
     26.73000000	      1.76834964	     -4.19376365	   -264.05830469	      0.01636257	      0.08353355	     -1.86297784	     33.32768418	     -1.78117822	    -16.62627080	    -28.07631238	     -6.60711598	    -14.06409638	     -2.10766608	    -11.84859959	     -7.10305528	     -7.96131680	    -27.71027608	     -7.16230744	     10.52925286	     31.16180331	     -6.22332227	      1.36853943	     -9.50072900
     26.73500000	      1.84462158	     -4.05105818	   -264.29433887	      0.01764417	      0.08424576	     -1.86405575	     32.95341774	     -1.48753063	    -16.55984364	    -28.55696735	     -5.91303201	    -14.05032229	     -1.96544357	    -11.46550680	     -7.43080297	     -8.20699437	    -28.96449160	     -8.95902317	     10.44743423	     31.04550553	     -6.21664567	      1.42251763	     -9.34219937
     26.74000000	      1.90224640	     -3.93076169	   -264.52390834	      0.01893638	      0.08499590	     -1.86506183	     32.54305763	     -1.20990113	    -16.55232411	    -28.94527736	     -5.30624511	    -13.87608212	     -1.40034895	    -10.96396215	     -7.76284044	     -8.51029276	    -30.34421650	    -11.22200006	     10.24149094	     33.30859987	     -6.19558119	      1.41944003	     -9.05826780
     26.74500000	      2.00624801	     -3.75284553	   -264.74636122	      0.02024432	      0.08579290	     -1.86601667	     32.02775384	     -0.86855317	    -16.53210640	    -29.24166452	     -4.66855347	    -13.84768000	     -1.26882297	    -10.50387124	     -8.16733066	     -8.75086481	    -31.78758208	    -13.00167735	      9.98494085	     32.99758407	     -6.22255847	      1.48335314	     -8.80260755
     26.75000000	      2.11604096	     -3.55818332	   -264.92528963	      0.02152868	      0.08668178	     -1.86691614	     31.41948603	     -0.55941078	    -16.67656267	    -29.41884605	     -4.04044130	    -13.68421449	     -1.06446839	    -10.00275322	     -8.59056424	     -8.92539367	    -33.28573896	    -14.73520118	      9.53718803	     32.70361524	     -6.27342523	      1.51957419	     -8.50306650
     26.75500000	      2.21036982	     -3.37595668	   -265.11966602	      0.02283742	      0.08755481	     -1.86771093	     30.80705360	     -0.25355539	    -16.76423746	    -29.55549567	     -3.41049047	    -13.45110231	     -0.75898819	     -9.46105705	     -9.00030552	     -9.11865644	    -34.80469100	    -16.45254493	      8.98832274	     32.29853849	     -6.33010804	      1.54483127	     -8.21791365
     26.76000000	      2.33668214	     -3.19586489	   -265.26218254	      0.02411288	      0.08844838	     -1.86827481	     30.16679509	      0.06103512	    -16.92540109	    -29.60798896	     -2.89623665	    -13.24616634	     -0.37459081	     -8.82151377	     -9.45532196	     -9.23098257	    -36.42177873	    -18.13458822	      8.32427511	     31.69030628	     -6.40949561	      1.60719819	     -7.99495003
     26.76500000	      2.53049963	     -3.04576739	   -265.33746332	      0.02526074	      0.08925688	     -1.86854527	     29.52146747	      0.42562519	    -17.09476650	    -29.54199248	     -2.53041473	    -13.02850879	      0.75512843	     -8.02986913	     -9.97950879	     -9.16931758	    -38.16588380	    -19.44236723	      7.69709109	     29.55495600	     -6.48375237	      1.74662773	     -7.81152460
     26.77000000	      2.68214655	     -2.83168296	   -265.50922282	      0.02660063	      0.09035117	     -1.86932069	     28.70424587	      0.83313471	    -17.14944885	    -29.34020471	     -2.06380181	    -12.90795792	      0.86246865	     -7.47519919	    -10.44987357	     -9.26923510	    -39.63155609	    -21.20963068	      6.96532138	     29.06566401	     -6.56862942	      1.81832458	     -7.55592640
     26.77500000	      2.84382556	     -2.67555583	   -265.59634795	      0.02776006	      0.09135660	     -1.86968153	     27.98710661	      1.19691336	    -17.23770557	    -29.17523050	     -1.56099474	    -12.82294383	      1.01460653	     -6.71965456	    -10.91675700	     -9.21422769	    -41.22928029	    -22.83372580	      5.99389923	     28.34497413	     -6.64898343	      1.91559930	     -7.33618227
     26.78000000	      3.01205717	     -2.54568658	   -265.71489959	      0.02895977	      0.09240165	     -1.86995222	     27.26663498	      1.61040599	    -17.22499938	    -28.90686177	     -1.20816266	    -12.69622186	      1.49784368	     -5.90897098	    -11.35592693	     -9.12225348	    -42.81521340	    -24.03683453	      4.90332309	     25.14962619	     -6.70218000	      2.01650906	     -7.10735447
     26.78500000	      3.22339443	     -2.39593573	   -265.75082026	      0.02996613	      0.09352877	     -1.87008434	     26.47976583	      2.05011267	    -17.26374137	    -28.51838101	     -0.88959028	    -12.80401586	      1.56143164	     -5.05975742	    -11.83808938	     -8.93672157	    -44.38204481	    -25.76131708	      3.82067435	     24.62337471	     -6.79748342	      2.17616506	     -6.92952826
     26.79000000	      3.36368410	     -2.29042284	   -265.78058641	      0.03094844	      0.09466478	     -1.87013573	     25.77201984	      2.39180178	    -17.29105524	    -28.20029495	     -0.54748482	    -12.74195413	      1.67856460	     -4.12922464	    -12.17924253	     -8.62792895	    -45.93312518	    -27.10143831	      2.57260780	     21.74825864	     -6.85576650	      2.26377673	     -6.78431665
